<svg viewBox="0 0 34 34" xmlns="http://www.w3.org/2000/svg" width="34"
     height="34" fill="none">
    <rect width="34" height="34" x="0" y="0"
          fill="rgb(255,255,255)" fill-opacity="0"/>
    <g>
        <path d="M23.539 15.2125C23.539 10.8959 21.3348 9.35805 19.5205 8.61115C19.2796 8.51215 19.0527 8.28476 18.9793 8.03724C18.661 6.95416 17.7689 6 16.583 6C15.3971 6 14.5044 6.9547 14.1894 8.03833C14.116 8.28857 13.8892 8.51215 13.6482 8.61115C11.8318 9.35914 9.62971 10.8916 9.62971 15.2125C9.627 19.9262 8.64074 20.7965 7.24377 22.5063C6.66497 23.2146 7.17197 24.2781 8.18433 24.2781L24.9871 24.2781C25.994 24.2781 26.4978 23.2113 25.9222 22.5063C24.5253 20.7965 23.539 19.9262 23.539 15.2125Z"
              fill-rule="nonzero" stroke="rgb(129.703,129.703,129.703)" stroke-linecap="round" stroke-linejoin="round"
              stroke-width="2"/>
        <path d="M20.0646 24.2782L20.0646 25.1486C20.0646 26.0719 19.6978 26.9575 19.0449 27.6104C18.392 28.2633 17.5065 28.6301 16.5831 28.6301C15.6597 28.6301 14.7742 28.2633 14.1213 27.6104C13.4684 26.9575 13.1016 26.0719 13.1016 25.1486L13.1016 24.2782"
              fill-rule="nonzero" stroke="rgb(129.703,129.703,129.703)" stroke-linecap="round" stroke-linejoin="round"
              stroke-width="2"/>
    </g>
</svg>
