<svg viewBox="0 0 34 34" xmlns="http://www.w3.org/2000/svg"
     width="34" height="34" fill="none" clip-path="url(#clipPath_8)">
    <defs>
        <clipPath>
            <rect width="34" height="34" x="0.000000" y="0.000000" rx="10.000000"
                  fill="#fff"/>
        </clipPath>
    </defs>
    <rect width="34" height="34" x="0.000000" y="0.000000" rx="10.000000"
          fill="#fff" fill-opacity="0"/>
    <path
            d="M13.5326 4.66308L13.5326 2.06709C13.5326 1.89496 13.601 1.72989 13.7227 1.60818C13.8444 1.48647 14.0095 1.41809 14.1816 1.41809C14.3537 1.41809 14.5188 1.48647 14.6405 1.60818C14.7622 1.72989 14.8306 1.89496 14.8306 2.06709L14.8306 4.66308C14.8306 4.83521 14.7622 5.00028 14.6405 5.12199C14.5188 5.2437 14.3537 5.31208 14.1816 5.31208C14.0095 5.31208 13.8444 5.2437 13.7227 5.12199C13.601 5.00028 13.5326 4.83521 13.5326 4.66308ZM20.8879 14.1817C20.8879 15.5081 20.4946 16.8047 19.7577 17.9076C19.0208 19.0104 17.9734 19.87 16.748 20.3776C15.5226 20.8851 14.1742 21.0179 12.8733 20.7592C11.5724 20.5004 10.3774 19.8617 9.43952 18.9238C8.50163 17.9859 7.86291 16.791 7.60415 15.4901C7.34538 14.1892 7.47819 12.8407 7.98577 11.6153C8.49336 10.3899 9.35293 9.34253 10.4558 8.60563C11.5586 7.86873 12.8552 7.47541 14.1816 7.47541C15.9596 7.47741 17.6642 8.18461 18.9215 9.44186C20.1787 10.6991 20.8859 12.4037 20.8879 14.1817ZM6.80033 7.7177C6.85974 7.78147 6.93139 7.83261 7.011 7.86808C7.09061 7.90355 7.17655 7.92263 7.26369 7.92416C7.35084 7.9257 7.43739 7.90967 7.51821 7.87703C7.59902 7.84439 7.67243 7.7958 7.73405 7.73418C7.79568 7.67255 7.84427 7.59914 7.87691 7.51833C7.90955 7.43752 7.92558 7.35096 7.92404 7.26382C7.9225 7.17667 7.90343 7.09074 7.86796 7.01113C7.83249 6.93152 7.78134 6.85987 7.71758 6.80045L5.98692 5.06979C5.86389 4.95515 5.70117 4.89274 5.53303 4.89571C5.3649 4.89867 5.20448 4.96678 5.08557 5.08569C4.96666 5.2046 4.89855 5.36502 4.89558 5.53315C4.89262 5.70129 4.95503 5.86401 5.06967 5.98704L6.80033 7.7177ZM6.80033 20.6457L5.06967 22.3764C5.0059 22.4358 4.95476 22.5075 4.91929 22.5871C4.88382 22.6667 4.86474 22.7526 4.86321 22.8398C4.86167 22.9269 4.8777 23.0135 4.91034 23.0943C4.94298 23.1751 4.99156 23.2485 5.05319 23.3101C5.11482 23.3718 5.18823 23.4203 5.26904 23.453C5.34985 23.4856 5.43641 23.5017 5.52355 23.5001C5.61069 23.4986 5.69663 23.4795 5.77624 23.444C5.85585 23.4086 5.9275 23.3574 5.98692 23.2937L7.71758 21.563C7.78134 21.5036 7.83249 21.4319 7.86796 21.3523C7.90343 21.2727 7.9225 21.1868 7.92404 21.0996C7.92558 21.0125 7.90955 20.9259 7.87691 20.8451C7.84427 20.7643 7.79568 20.6909 7.73405 20.6293C7.67243 20.5676 7.59902 20.5191 7.51821 20.4864C7.43739 20.4538 7.35084 20.4378 7.26369 20.4393C7.17655 20.4408 7.09061 20.4599 7.011 20.4954C6.93139 20.5308 6.85974 20.582 6.80033 20.6457ZM21.1043 7.90807C21.2763 7.90792 21.4413 7.83945 21.5629 7.7177L23.2935 5.98704C23.4082 5.86401 23.4706 5.70129 23.4676 5.53315C23.4647 5.36502 23.3965 5.2046 23.2776 5.08569C23.1587 4.96678 22.9983 4.89867 22.8302 4.89571C22.662 4.89274 22.4993 4.95515 22.3763 5.06979L20.6456 6.80045C20.555 6.89121 20.4933 7.0068 20.4683 7.13262C20.4433 7.25844 20.4561 7.38884 20.5052 7.50736C20.5543 7.62588 20.6374 7.7272 20.744 7.79852C20.8506 7.86984 20.976 7.90796 21.1043 7.90807ZM21.5629 20.6457C21.4398 20.5311 21.2771 20.4687 21.109 20.4717C20.9409 20.4746 20.7804 20.5427 20.6615 20.6617C20.5426 20.7806 20.4745 20.941 20.4715 21.1091C20.4686 21.2773 20.531 21.44 20.6456 21.563L22.3763 23.2937C22.4993 23.4083 22.662 23.4707 22.8302 23.4677C22.9983 23.4648 23.1587 23.3967 23.2776 23.2778C23.3965 23.1588 23.4647 22.9984 23.4676 22.8303C23.4706 22.6622 23.4082 22.4994 23.2935 22.3764L21.5629 20.6457ZM5.31196 14.1817C5.31196 14.0096 5.24358 13.8445 5.12187 13.7228C5.00016 13.6011 4.83509 13.5327 4.66296 13.5327L2.06697 13.5327C1.89484 13.5327 1.72977 13.6011 1.60806 13.7228C1.48635 13.8445 1.41797 14.0096 1.41797 14.1817C1.41797 14.3539 1.48635 14.5189 1.60806 14.6406C1.72977 14.7623 1.89484 14.8307 2.06697 14.8307L4.66296 14.8307C4.83509 14.8307 5.00016 14.7623 5.12187 14.6406C5.24358 14.5189 5.31196 14.3539 5.31196 14.1817ZM14.1816 23.0514C14.0095 23.0514 13.8444 23.1197 13.7227 23.2415C13.601 23.3632 13.5326 23.5282 13.5326 23.7004L13.5326 26.2964C13.5326 26.4685 13.601 26.6336 13.7227 26.7553C13.8444 26.877 14.0095 26.9454 14.1816 26.9454C14.3537 26.9454 14.5188 26.877 14.6405 26.7553C14.7622 26.6336 14.8306 26.4685 14.8306 26.2964L14.8306 23.7004C14.8306 23.5282 14.7622 23.3632 14.6405 23.2415C14.5188 23.1197 14.3537 23.0514 14.1816 23.0514ZM26.2962 13.5327L23.7002 13.5327C23.5281 13.5327 23.363 13.6011 23.2413 13.7228C23.1196 13.8445 23.0512 14.0096 23.0512 14.1817C23.0512 14.3539 23.1196 14.5189 23.2413 14.6406C23.363 14.7623 23.5281 14.8307 23.7002 14.8307L26.2962 14.8307C26.4684 14.8307 26.6334 14.7623 26.7551 14.6406C26.8769 14.5189 26.9452 14.3539 26.9452 14.1817C26.9452 14.0096 26.8769 13.8445 26.7551 13.7228C26.6334 13.6011 26.4684 13.5327 26.2962 13.5327Z"
            fill="#fff" fill-rule="nonzero"/>
    <path
            d="M13.5326 2.06709C13.5326 1.89496 13.601 1.72989 13.7227 1.60818C13.8444 1.48647 14.0095 1.41809 14.1816 1.41809C14.3537 1.41809 14.5188 1.48647 14.6405 1.60818C14.7622 1.72989 14.8306 1.89496 14.8306 2.06709L14.8306 4.66308C14.8306 4.83521 14.7622 5.00028 14.6405 5.12199C14.5188 5.2437 14.3537 5.31208 14.1816 5.31208C14.0095 5.31208 13.8444 5.2437 13.7227 5.12199C13.601 5.00028 13.5326 4.83521 13.5326 4.66308L13.5326 2.06709ZM19.7577 17.9076C19.0208 19.0104 17.9734 19.87 16.748 20.3776C15.5226 20.8851 14.1742 21.0179 12.8733 20.7592C11.5724 20.5004 10.3774 19.8617 9.43952 18.9238C8.50163 17.9859 7.86291 16.791 7.60415 15.4901C7.34538 14.1892 7.47819 12.8407 7.98577 11.6153C8.49336 10.3899 9.35293 9.34253 10.4558 8.60563C11.5586 7.86873 12.8552 7.47541 14.1816 7.47541C15.9596 7.47741 17.6642 8.18461 18.9215 9.44186C20.1787 10.6991 20.8859 12.4037 20.8879 14.1817C20.8879 15.5081 20.4946 16.8047 19.7577 17.9076ZM13.1265 8.87733C12.0774 9.08601 11.1137 9.6011 10.3573 10.3575C9.60098 11.1138 9.08588 12.0775 8.8772 13.1266C8.66852 14.1757 8.77562 15.2632 9.18497 16.2514C9.59431 17.2396 10.2875 18.0843 11.1769 18.6786C12.0663 19.2729 13.1119 19.59 14.1816 19.59C15.6155 19.5883 16.9901 19.018 18.004 18.0041C19.0178 16.9902 19.5882 15.6156 19.5899 14.1817C19.5899 13.1121 19.2727 12.0664 18.6785 11.177M7.011 7.86808C7.09061 7.90355 7.17655 7.92263 7.26369 7.92416C7.35084 7.9257 7.43739 7.90967 7.51821 7.87703C7.59902 7.84439 7.67243 7.7958 7.73405 7.73418C7.79568 7.67255 7.84427 7.59914 7.87691 7.51833C7.90955 7.43752 7.92558 7.35096 7.92404 7.26382C7.9225 7.17667 7.90343 7.09074 7.86796 7.01113C7.83249 6.93152 7.78134 6.85987 7.71758 6.80045L5.98692 5.06979C5.86389 4.95515 5.70117 4.89274 5.53303 4.89571C5.3649 4.89867 5.20448 4.96678 5.08557 5.08569C4.96666 5.2046 4.89855 5.36502 4.89558 5.53315C4.89262 5.70129 4.95503 5.86401 5.06967 5.98704L6.80033 7.7177C6.85974 7.78147 6.93139 7.83261 7.011 7.86808ZM5.06967 22.3764C5.0059 22.4358 4.95476 22.5075 4.91929 22.5871C4.88382 22.6667 4.86474 22.7526 4.86321 22.8398C4.86167 22.9269 4.8777 23.0135 4.91034 23.0943C4.94298 23.1751 4.99156 23.2485 5.05319 23.3101C5.11482 23.3718 5.18823 23.4203 5.26904 23.453C5.34985 23.4856 5.43641 23.5017 5.52355 23.5001C5.61069 23.4986 5.69663 23.4795 5.77624 23.444C5.85585 23.4086 5.9275 23.3574 5.98692 23.2937L7.71758 21.563C7.78134 21.5036 7.83249 21.4319 7.86796 21.3523C7.90343 21.2727 7.9225 21.1868 7.92404 21.0996C7.92558 21.0125 7.90955 20.9259 7.87691 20.8451C7.84427 20.7643 7.79568 20.6909 7.73405 20.6293C7.67243 20.5676 7.59902 20.5191 7.51821 20.4864C7.43739 20.4538 7.35084 20.4378 7.26369 20.4393C7.17655 20.4408 7.09061 20.4599 7.011 20.4954C6.93139 20.5308 6.85974 20.582 6.80033 20.6457L5.06967 22.3764ZM21.5629 7.7177L23.2935 5.98704C23.4082 5.86401 23.4706 5.70129 23.4676 5.53315C23.4647 5.36502 23.3965 5.2046 23.2776 5.08569C23.1587 4.96678 22.9983 4.89867 22.8302 4.89571C22.662 4.89274 22.4993 4.95515 22.3763 5.06979L20.6456 6.80045C20.555 6.89121 20.4933 7.0068 20.4683 7.13262C20.4433 7.25844 20.4561 7.38884 20.5052 7.50736C20.5543 7.62588 20.6374 7.7272 20.744 7.79852C20.8506 7.86984 20.976 7.90796 21.1043 7.90807C21.2763 7.90792 21.4413 7.83945 21.5629 7.7177ZM21.109 20.4717C20.9409 20.4746 20.7804 20.5427 20.6615 20.6617C20.5426 20.7806 20.4745 20.941 20.4715 21.1091C20.4686 21.2773 20.531 21.44 20.6456 21.563L22.3763 23.2937C22.4993 23.4083 22.662 23.4707 22.8302 23.4677C22.9983 23.4648 23.1587 23.3967 23.2776 23.2778C23.3965 23.1588 23.4647 22.9984 23.4676 22.8303C23.4706 22.6622 23.4082 22.4994 23.2935 22.3764L21.5629 20.6457C21.4398 20.5311 21.2771 20.4687 21.109 20.4717ZM5.12187 13.7228C5.00016 13.6011 4.83509 13.5327 4.66296 13.5327L2.06697 13.5327C1.89484 13.5327 1.72977 13.6011 1.60806 13.7228C1.48635 13.8445 1.41797 14.0096 1.41797 14.1817C1.41797 14.3539 1.48635 14.5189 1.60806 14.6406C1.72977 14.7623 1.89484 14.8307 2.06697 14.8307L4.66296 14.8307C4.83509 14.8307 5.00016 14.7623 5.12187 14.6406C5.24358 14.5189 5.31196 14.3539 5.31196 14.1817C5.31196 14.0096 5.24358 13.8445 5.12187 13.7228ZM13.7227 23.2415C13.601 23.3632 13.5326 23.5282 13.5326 23.7004L13.5326 26.2964C13.5326 26.4685 13.601 26.6336 13.7227 26.7553C13.8444 26.877 14.0095 26.9454 14.1816 26.9454C14.3537 26.9454 14.5188 26.877 14.6405 26.7553C14.7622 26.6336 14.8306 26.4685 14.8306 26.2964L14.8306 23.7004C14.8306 23.5282 14.7622 23.3632 14.6405 23.2415C14.5188 23.1197 14.3537 23.0514 14.1816 23.0514C14.0095 23.0514 13.8444 23.1197 13.7227 23.2415ZM23.7002 13.5327C23.5281 13.5327 23.363 13.6011 23.2413 13.7228C23.1196 13.8445 23.0512 14.0096 23.0512 14.1817C23.0512 14.3539 23.1196 14.5189 23.2413 14.6406C23.363 14.7623 23.5281 14.8307 23.7002 14.8307L26.2962 14.8307C26.4684 14.8307 26.6334 14.7623 26.7551 14.6406C26.8769 14.5189 26.9452 14.3539 26.9452 14.1817C26.9452 14.0096 26.8769 13.8445 26.7551 13.7228C26.6334 13.6011 26.4684 13.5327 26.2962 13.5327L23.7002 13.5327Z"
            fill-rule="nonzero" stroke="#fff" stroke-width="0.75"/>
</svg>
