<svg width="11.238281" height="10.738403" viewBox="0 0 11.2383 10.7384" fill="none" xmlns="http://www.w3.org/2000/svg">
    <path d="M5.14 0.34L4.16 3.37C4.09 3.57 3.9 3.71 3.68 3.71L0.5 3.71C0.01 3.71 -0.19 4.33 0.2 4.62L2.78 6.49C2.95 6.62 3.03 6.84 2.96 7.05L1.98 10.08C1.83 10.54 2.35 10.92 2.75 10.64L5.32 8.76C5.5 8.64 5.73 8.64 5.91 8.76L8.48 10.64C8.88 10.92 9.4 10.54 9.25 10.08L8.27 7.05C8.2 6.84 8.28 6.62 8.45 6.49L11.03 4.62C11.42 4.33 11.22 3.71 10.73 3.71L7.55 3.71C7.33 3.71 7.14 3.57 7.07 3.37L6.09 0.34C5.94 -0.12 5.29 -0.12 5.14 0.34Z" fill="#FFFFFF" fill-opacity="1.000000" fill-rule="evenodd"/>
</svg>
