<svg viewBox="0 0 34 34" xmlns="http://www.w3.org/2000/svg" width="34" height="34" fill="none">
    <rect width="34" height="34" x="0" y="0" fill="rgb(255,255,255)" fill-opacity="0"/>
    <g>
        <path d="M16.2478 24.9957C11.4029 24.9957 7.5 21.0928 7.5 16.2478C7.5 11.4029 11.4029 7.5 16.2478 7.5C21.0928 7.5 24.9957 11.4029 24.9957 16.2478C24.9957 21.0928 21.0928 24.9957 16.2478 24.9957ZM16.2478 8.84582C12.1431 8.84582 8.84582 12.1431 8.84582 16.2478C8.84582 20.3526 12.1431 23.6498 16.2478 23.6498C20.3526 23.6498 23.6498 20.3526 23.6498 16.2478C23.6498 12.1431 20.3526 8.84582 16.2478 8.84582Z"
              fill="#ffffff" fill-rule="nonzero"/>
        <path d="M7.5 16.2478C7.5 11.4029 11.4029 7.5 16.2478 7.5C21.0928 7.5 24.9957 11.4029 24.9957 16.2478C24.9957 21.0928 21.0928 24.9957 16.2478 24.9957C11.4029 24.9957 7.5 21.0928 7.5 16.2478ZM8.84582 16.2478C8.84582 20.3526 12.1431 23.6498 16.2478 23.6498C20.3526 23.6498 23.6498 20.3526 23.6498 16.2478C23.6498 12.1431 20.3526 8.84582 16.2478 8.84582C12.1431 8.84582 8.84582 12.1431 8.84582 16.2478Z"
              fill-rule="nonzero" stroke="#ffffff" stroke-width="0.5"/>
        <path d="M22.5604 21.8888L26.1621 25.4905C26.348 25.6763 26.348 25.9777 26.1621 26.1636C25.9762 26.3494 25.6749 26.3494 25.489 26.1636L21.8873 22.5619C21.7015 22.376 21.7015 22.0747 21.8873 21.8888C22.0732 21.7029 22.3746 21.7029 22.5604 21.8888Z"
              fill="#ffffff" fill-rule="nonzero"/>
        <path d="M26.1621 25.4905C26.348 25.6763 26.348 25.9777 26.1621 26.1636C25.9762 26.3494 25.6749 26.3494 25.489 26.1636L21.8873 22.5619C21.7015 22.376 21.7015 22.0747 21.8873 21.8888C22.0732 21.7029 22.3746 21.7029 22.5604 21.8888L26.1621 25.4905Z"
              fill-rule="nonzero" stroke="#ffffff" stroke-width="0.5"/>
    </g>
</svg>
